# xmcd
#
# Track frame offsets:
# 150
# 41888
# 64885
# 75197
# 83691
# 126290
# 135065
# 161681
# 202126
# 258704
#
# Disc length: 3818 seconds
#
#
# Revision: 1
# Processed by: cddbd v1.5.2PL0 Copyright (c) Steve Scherf et al.
# Submitted via: FreeRIP 2.951 
#
DISCID=840ee80a
DTITLE=Gilles Deleuze - Leibniz - âme et damnation  - cd2
DYEAR=1900
DGENRE=Speech
TTITLE0=Judas
TTITLE1=Le plaisir du damne
TTITLE2=La chanson de Belzebuth
TTITLE3=Nietsche...
TTITLE4=Bergson
TTITLE5=Whitehead...
TTITLE6=Dieu est éternel, ça signifie quoi?
TTITLE7=La moralité? comme progrès
TTITLE8=je preexiste à moi-même depuis le debut du mon
TTITLE9=La resurrection
EXTD=
EXTT0=
EXTT1=
EXTT2=
EXTT3=
EXTT4=
EXTT5=
EXTT6=
EXTT7=
EXTT8=
EXTT9=
PLAYORDER=
